# xmcd
#
# Track frame offsets: 
#        150
#        9810
#        25265
#        40363
#        58247
#        68628
#        83636
#        93863
#        103977
#        117485
#        127110
#        139371
#        151128
#        159763
#        168916
#        178826
#        189973
#
# Disc length: 2645 seconds
#
# Revision: 0
# Processed by: cddbd v1.5.2PL0 Copyright (c) Steve Scherf et al.
# Submitted via: ExactAudioCopy v0.99pb5
#
DISCID=da0a5311
DTITLE=Elvis Presley  - I Believe The Gospel Masters [Disc 1]
DYEAR=1900
DGENRE=
TTITLE0=I Believe
TTITLE1=(There'll Be) Peace In The Valley (For Me)
TTITLE2=Take My Hand, Precious Lord
TTITLE3=It Is No Secret (What God Can Do)
TTITLE4=Milky White Way
TTITLE5=His Hand In Mine
TTITLE6=I Believe In The Man In The Sky
TTITLE7=He Knows Just What I Need
TTITLE8=Mansion Over The Hilltop
TTITLE9=In My Father's House
TTITLE10=Joshua Fit The Battle
TTITLE11=Swing Down, Sweet Chariot
TTITLE12=I'm Gonna Walk Dem Golden Stairs
TTITLE13=If We Never Meet Again
TTITLE14=Known Only To Him
TTITLE15=Crying In The Chapel
TTITLE16=Working On The Building
EXTD=
EXTT0=
EXTT1=
EXTT2=
EXTT3=
EXTT4=
EXTT5=
EXTT6=
EXTT7=
EXTT8=
EXTT9=
EXTT10=
EXTT11=
EXTT12=
EXTT13=
EXTT14=
EXTT15=
EXTT16=
PLAYORDER=
